<svg xmlns="http://www.w3.org/2000/svg" viewBox="0 0 800 450">
  <defs>
    <linearGradient id="bg" x1="0%" y1="0%" x2="100%" y2="100%">
      <stop offset="0%" style="stop-color:#1a1a2e"/>
      <stop offset="100%" style="stop-color:#16213e"/>
    </linearGradient>
    <linearGradient id="shield" x1="0%" y1="0%" x2="100%" y2="100%">
      <stop offset="0%" style="stop-color:#e74c3c"/>
      <stop offset="100%" style="stop-color:#c0392b"/>
    </linearGradient>
  </defs>
  <rect width="800" height="450" fill="url(#bg)"/>
  <path d="M400 80 L480 120 L480 200 C480 260 440 310 400 330 C360 310 320 260 320 200 L320 120 Z" fill="url(#shield)" opacity="0.9"/>
  <path d="M380 200 L395 215 L425 185" stroke="white" stroke-width="6" fill="none" stroke-linecap="round" stroke-linejoin="round"/>
  <rect x="385" y="230" width="30" height="22" rx="3" fill="white" opacity="0.9"/>
  <path d="M390 230 L390 222 C390 214 410 214 410 222 L410 230" stroke="white" stroke-width="3" fill="none"/>
  <rect x="140" y="140" width="160" height="90" rx="8" fill="#0f3460" stroke="#e74c3c" stroke-width="1.5" opacity="0.8"/>
  <text x="155" y="165" font-family="monospace" font-size="11" fill="#e74c3c">$ getenforce</text>
  <text x="155" y="182" font-family="monospace" font-size="11" fill="#27ae60">Enforcing</text>
  <text x="155" y="200" font-family="monospace" font-size="11" fill="#e74c3c">$ sestatus</text>
  <text x="155" y="217" font-family="monospace" font-size="11" fill="#95a5a6">SELinux: enabled</text>
  <rect x="500" y="140" width="160" height="90" rx="8" fill="#0f3460" stroke="#e74c3c" stroke-width="1.5" opacity="0.8"/>
  <text x="515" y="165" font-family="monospace" font-size="11" fill="#e74c3c">$ ls -Z /var/www</text>
  <text x="515" y="182" font-family="monospace" font-size="10" fill="#3498db">httpd_sys_content_t</text>
  <text x="515" y="200" font-family="monospace" font-size="11" fill="#e74c3c">$ getsebool -a</text>
  <text x="515" y="217" font-family="monospace" font-size="10" fill="#95a5a6">httpd_can_net...</text>
  <rect x="160" y="280" width="120" height="32" rx="16" fill="#e74c3c" opacity="0.15"/>
  <text x="220" y="301" font-family="sans-serif" font-size="12" fill="#e74c3c" text-anchor="middle" font-weight="bold">httpd_t</text>
  <rect x="340" y="280" width="120" height="32" rx="16" fill="#3498db" opacity="0.15"/>
  <text x="400" y="301" font-family="sans-serif" font-size="12" fill="#3498db" text-anchor="middle" font-weight="bold">Type Enforce</text>
  <rect x="520" y="280" width="120" height="32" rx="16" fill="#27ae60" opacity="0.15"/>
  <text x="580" y="301" font-family="sans-serif" font-size="12" fill="#27ae60" text-anchor="middle" font-weight="bold">Booleans</text>
  <text x="400" y="370" font-family="sans-serif" font-size="28" fill="white" text-anchor="middle" font-weight="bold">SELinux for System Admins</text>
  <text x="400" y="400" font-family="sans-serif" font-size="16" fill="#95a5a6" text-anchor="middle">Mandatory Access Control on RHEL</text>
  <rect x="340" y="415" width="120" height="24" rx="12" fill="#e74c3c" opacity="0.2"/>
  <text x="400" y="432" font-family="sans-serif" font-size="11" fill="#e74c3c" text-anchor="middle" font-weight="bold">RHEL 9 / 10</text>
</svg>
